<svg width="400" height="600" viewBox="0 0 400 600" fill="none" xmlns="http://www.w3.org/2000/svg">
<ellipse rx="104.051" ry="97.4892" transform="matrix(-0.892078 -0.451881 0.549706 -0.835359 146.412 185.755)" fill="url(#paint0_linear_213_532)"/>
<path d="M80.3747 567.988C91.8822 565.968 104.705 567.988 186.572 567.988C268.439 567.988 315.456 565.68 338.142 562.507C360.828 559.334 411.461 566.834 397.652 577.507C383.843 588.18 248.712 603.469 225.697 594.815C202.682 586.161 23.1662 604.623 37.6327 583.565C49.206 566.718 70.9496 566.161 80.3747 567.988Z" fill="black" fill-opacity="0.13"/>
<g clip-path="url(#clip0_213_532)">
<path d="M150.518 148.102C148.862 148.923 147.169 149.027 146.72 148.338L141.818 140.751C141.369 140.062 142.349 138.839 143.999 138.016C145.655 137.195 147.357 137.088 147.8 137.774L152.703 145.361C153.151 146.05 152.168 147.278 150.518 148.102Z" fill="#2B242A"/>
<path d="M144.324 136.626C144.324 136.626 142.204 138.809 145.511 143.924C148.817 149.039 152.046 148.564 152.046 148.564C152.046 148.564 189.783 128.077 194.795 125.587C199.807 123.098 195.119 113.719 189.073 116.733C183.026 119.746 144.324 136.626 144.324 136.626Z" fill="#BC7BFB"/>
<g style="mix-blend-mode:soft-light">
<path d="M151.495 147.47C158.021 143.931 188.552 127.384 193.022 125.155L193.116 125.106C188.383 122.751 151.01 146.508 151.495 147.47Z" fill="white"/>
</g>
<g style="mix-blend-mode:multiply">
<path d="M151.936 146.529C151.213 144.383 151.072 142.154 152.187 140.077C153.599 137.433 156.071 135.382 158.582 133.522C164.525 129.126 170.82 125.345 178.497 123.776C184.15 122.625 190.369 122.477 195.48 125.15C199.348 122.179 194.812 113.876 189.073 116.733C183.032 119.736 144.327 136.621 144.327 136.621C144.327 136.621 142.207 138.804 145.514 143.919C148.82 149.034 152.049 148.559 152.049 148.559L152.673 148.217C152.381 147.671 152.134 147.107 151.936 146.529Z" fill="#BC7BFB"/>
</g>
<g style="mix-blend-mode:soft-light">
<g style="mix-blend-mode:soft-light">
<path d="M154.953 146.991L144.014 140.884C144.23 141.543 144.51 142.185 144.85 142.803L153.629 147.704C153.995 147.522 154.452 147.256 154.953 146.991Z" fill="white"/>
</g>
<g style="mix-blend-mode:soft-light">
<path d="M160.425 144.025L145.914 135.924L144.448 136.576L159.095 144.749C159.531 144.507 159.974 144.267 160.425 144.025Z" fill="white"/>
</g>
<g style="mix-blend-mode:soft-light">
<path d="M167.695 140.086L153.946 132.417C153.444 132.632 152.969 132.851 152.479 133.07L166.367 140.818L167.695 140.086Z" fill="white"/>
</g>
<g style="mix-blend-mode:soft-light">
<path d="M174.974 136.159L161.933 128.886L160.472 129.541L173.617 136.878L174.974 136.159Z" fill="white"/>
</g>
<g style="mix-blend-mode:soft-light">
<path d="M182.265 132.236L169.988 125.378L168.528 126.033L180.919 132.934L182.265 132.236Z" fill="white"/>
</g>
<g style="mix-blend-mode:soft-light">
<path d="M189.573 128.32L177.917 121.846C177.442 122.052 176.949 122.264 176.462 122.504L188.243 129.032L189.573 128.32Z" fill="white"/>
</g>
<g style="mix-blend-mode:soft-light">
<path d="M194 122.799L185.844 118.25L184.407 118.916L195.462 125.078L194 122.799Z" fill="white"/>
</g>
</g>
<path d="M201.475 121.696C207.061 118.915 252.494 119.417 264.862 119.78C262.45 116.897 236.716 109.476 236.716 109.476C236.716 109.476 241.688 113.845 234.159 114.159C223.834 114.596 211.813 114.788 209.414 114.831C205.6 114.887 205.23 113.145 206.868 110.946C207.862 109.607 214.281 100.567 220.361 92.8084C223.411 88.9175 226.312 93.4516 226.312 93.4516C226.312 93.4516 236.023 61.8961 230.624 66.8103C224.405 78.1945 202.239 110.494 196.177 113.495C190.115 116.495 195.885 124.47 201.475 121.696Z" fill="#352E35"/>
<path d="M259.321 46.6219C283.679 34.5006 312.378 38.5348 323.437 55.6393C333.913 71.8488 324.742 93.997 303.019 106.556C303.929 107.664 304.966 108.742 305.744 109.915C330.016 95.8847 340.222 71.1872 328.537 53.0977C316.21 34.0233 284.187 29.5106 257.01 43.0369C253.807 44.6258 250.751 46.4341 247.873 48.4448C248.798 49.5646 249.793 50.6389 250.852 51.6626C253.515 49.784 256.347 48.0982 259.321 46.6219Z" fill="#BC7BFB"/>
<path d="M327.687 72.5461L326.602 73.0805L324.122 69.2874L327.618 67.5254C327.593 67.2572 327.559 66.9916 327.525 66.726L323.717 68.6237L321.252 64.8305L325.598 62.6643L327.292 65.2746C327.14 64.4884 326.958 63.7153 326.741 62.9398L326.358 62.3173L326.551 62.2209C326.476 61.9761 326.398 61.7366 326.323 61.479L325.956 61.6614L323.488 57.8476L324.496 57.3574L324.13 56.7039L323.104 57.2251L320.638 53.4061L321.514 52.9682L321.019 52.3747L320.225 52.7709L318.006 49.3996C317.367 48.8404 316.702 48.3019 315.984 47.7792L316.531 48.6588L312.178 50.8225L309.747 46.9929L312.626 45.5618C312.366 45.4109 312.1 45.2575 311.835 45.1169L309.34 46.3603L307.124 42.9322C306.616 42.7129 306.083 42.5401 305.555 42.357L301.393 44.4165L298.924 40.6026L297.688 40.3767L293.426 42.5089L291.625 39.7237L290.634 39.6746L292.716 42.8453L288.363 45.009L285.897 41.19L289.04 39.6285C288.472 39.6211 287.907 39.6213 287.337 39.632L285.455 40.5678L284.908 39.7269L283.994 39.7883L284.731 40.9301L280.378 43.0937L278.643 40.414L277.78 40.5551L279.651 43.4612L275.325 45.617L272.859 41.798L273.653 41.4017C272.423 41.6995 271.19 42.0283 269.972 42.3828L267.378 43.6732L267.147 43.3673L266.355 43.668L266.646 44.1155L262.295 46.2223L261.796 45.4534C261.544 45.5631 261.3 45.6718 261.063 45.7796L261.571 46.5718L257.23 48.7276L256.734 47.9664L256.031 48.357L256.5 49.0873L252.154 51.2535L251.904 50.9271C251.679 51.0805 251.456 51.2287 251.237 51.3846L251.397 51.634L249.729 52.463C248.709 53.2267 247.726 54.0152 246.781 54.8285L249.226 58.6192L244.873 60.7828L243.18 58.1597C242.984 58.3516 242.791 58.5513 242.607 58.7483L244.152 61.14L239.817 63.3113L239.321 62.55C239.149 62.778 238.971 63.0033 238.799 63.2313L239.087 63.671L238.129 64.1506C237.826 64.5727 237.534 64.9999 237.249 65.4297L239.5 64.3062L241.966 68.1252L237.59 70.2787L235.861 67.6015C235.712 67.8654 235.57 68.119 235.416 68.3933L236.872 70.6435L233.515 72.3118C233.29 72.8574 233.076 73.4081 232.868 73.9613L235.105 77.4176L231.414 79.2502C231.358 79.5601 231.313 79.8493 231.256 80.1721L235.512 78.0503L237.984 81.8719L233.631 84.0355L231.23 80.3219C231.168 80.7325 231.112 81.1456 231.08 81.5431L232.91 84.3797L230.884 85.3756C230.892 85.6491 230.9 85.9225 230.913 86.1985L233.305 85.0073L235.771 88.8263L231.562 90.9169C231.823 92.0397 232.158 93.1484 232.563 94.2377L233.573 95.8064L233.271 95.9525L233.614 96.6474L234.01 96.4518L236.476 100.271L235.931 100.537C236.076 100.748 236.225 100.953 236.382 101.156L236.889 100.906L239.028 104.224C239.766 104.967 240.547 105.676 241.368 106.348L240.492 104.998L244.845 102.834L247.305 106.651L243.987 108.303C244.223 108.47 244.465 108.626 244.713 108.785L247.747 107.299L250.213 111.118L249.621 111.415L250.524 111.805L250.626 111.753L250.712 111.887C251.137 112.07 251.562 112.254 252.007 112.401L251.35 111.391L255.703 109.227L258.169 113.046L256.563 113.844C256.94 113.942 257.311 114.039 257.688 114.124L258.582 113.681L259.069 114.432L260.165 114.649L259.273 113.286L263.189 111.338L265.655 115.157L265.359 115.306C265.851 115.345 266.342 115.383 266.839 115.412L271.136 113.269L272.551 115.463L273.486 115.417L271.852 112.935L276.205 110.772L278.424 114.208L276.393 115.214C277.16 115.153 277.868 115.054 278.614 114.952L278.828 114.845L278.876 114.917L279.748 114.787L279.552 114.483L283.905 112.319L284.856 113.785L285.698 113.59L284.647 111.965L288.999 109.801L290.535 112.183L291.322 111.918L289.723 109.439L294.076 107.275L295.921 110.138L296.666 109.816L294.794 106.923L299.147 104.76L301.031 107.684L301.743 107.303L299.868 104.402L304.221 102.239L305.888 104.818C306.116 104.673 306.339 104.524 306.561 104.376L304.945 101.877L309.298 99.7129L310.486 101.513C310.7 101.342 310.904 101.173 311.115 101.007L310.036 99.3376L314.389 97.174L314.79 97.7654C314.992 97.5761 315.182 97.3816 315.377 97.1897L315.143 96.8245L316.28 96.2614C316.756 95.7533 317.226 95.2426 317.679 94.7242L314.73 96.1893L312.51 92.7534L316.816 90.5694L318.682 93.46C318.863 93.2424 319.041 93.017 319.216 92.7968L317.54 90.2071L321.893 88.0435L322.211 88.5347C322.356 88.2759 322.501 88.0172 322.647 87.7584L322.593 87.671L322.743 87.6005C322.964 87.2072 323.182 86.8191 323.4 86.431L322.18 87.0358L319.714 83.2168L324.067 81.0531L325.16 82.7479C325.288 82.4428 325.409 82.1351 325.522 81.8301L324.791 80.6908L326.174 80.0026C326.278 79.6744 326.379 79.3385 326.474 79.0129L324.387 80.0401L321.921 76.2211L326.288 74.0832L327.29 75.6417C327.366 75.2439 327.428 74.8463 327.488 74.4409L327.015 73.7157L327.607 73.4186C327.638 73.1294 327.668 72.8403 327.687 72.5461ZM249.956 58.2337L247.49 54.4146L251.843 52.251L254.309 56.07L249.956 58.2337ZM255.038 55.7103L252.572 51.8913L256.925 49.7276L259.391 53.5467L255.038 55.7103ZM260.121 53.1869L257.655 49.3679L262.008 47.2043L264.474 51.0233L260.121 53.1869ZM265.204 50.6635L262.735 46.8497L267.088 44.6861L269.557 48.4999L265.204 50.6635ZM270.284 48.1453L267.776 44.3342L272.129 42.1706L274.595 45.9896L270.284 48.1453ZM242.711 67.7396L240.198 63.9389L244.55 61.7753L247.019 65.5891L242.711 67.7396ZM247.79 65.2214L245.28 61.4155L249.633 59.2519L252.099 63.0709L247.79 65.2214ZM252.873 62.698L250.363 58.8921L254.716 56.7285L257.182 60.5475L252.873 62.698ZM257.956 60.1746L255.446 56.3687L259.798 54.2051L262.264 58.0241L257.956 60.1746ZM263.038 57.6512L260.528 53.8453L264.881 51.6817L267.347 55.5007L263.038 57.6512ZM268.121 55.1278L265.608 51.3271L269.961 49.1635L272.43 52.9774L268.121 55.1278ZM273.204 52.6045L270.735 48.7906L275.088 46.627L277.557 50.4408L273.204 52.6045ZM278.284 50.0863L275.818 46.2672L280.17 44.1036L282.636 47.9226L278.284 50.0863ZM283.366 47.5629L280.9 43.7439L285.253 41.5802L287.719 45.3993L283.366 47.5629ZM235.829 77.0424L233.363 73.2234L237.279 71.2762L239.745 75.0952L235.829 77.0424ZM240.469 74.7329L238.003 70.9138L242.356 68.7502L244.822 72.5692L240.469 74.7329ZM245.551 72.2095L243.082 68.3956L247.435 66.232L249.904 70.0459L245.551 72.2095ZM250.631 69.6913L248.165 65.8723L252.518 63.7086L254.984 67.5277L250.631 69.6913ZM255.714 67.1679L253.248 63.3489L257.601 61.1853L260.067 65.0043L255.714 67.1679ZM260.797 64.6445L258.331 60.8255L262.683 58.6619L265.149 62.4809L260.797 64.6445ZM265.879 62.1211L263.413 58.3021L267.766 56.1385L270.232 59.9575L265.879 62.1211ZM270.962 59.5977L268.493 55.7839L272.846 53.6203L275.315 57.4341L270.962 59.5977ZM276.045 57.0744L273.576 53.2605L277.928 51.0969L280.368 54.8722L276.045 57.0744ZM281.124 54.5561L278.658 50.7371L283.011 48.5735L285.477 52.3925L281.124 54.5561ZM286.207 52.0328L283.741 48.2138L288.094 46.0501L290.56 49.8691L286.207 52.0328ZM291.29 49.5094L288.776 45.6442L293.129 43.4805L295.592 47.3047L291.29 49.5094ZM296.372 46.986L293.906 43.167L298.259 41.0034L300.725 44.8224L296.372 46.986ZM238.708 81.4966L236.242 77.6776L240.17 75.7355L242.636 79.5545L238.708 81.4966ZM243.36 79.1922L240.893 75.3732L245.252 73.2121L247.718 77.0311L243.36 79.1922ZM248.442 76.6688L245.973 72.855L250.332 70.6939L252.801 74.5077L248.442 76.6688ZM253.528 74.1402L251.062 70.3212L255.415 68.1705L257.881 71.9895L253.528 74.1402ZM258.61 71.6169L256.144 67.7978L260.497 65.6342L262.963 69.4532L258.61 71.6169ZM263.693 69.0935L261.227 65.2745L265.574 63.1083L268.046 66.9299L263.693 69.0935ZM268.776 66.5701L266.31 62.7511L270.657 60.5849L273.129 64.4065L268.776 66.5701ZM273.859 64.0467L271.39 60.2329L275.742 58.0693L278.211 61.8831L273.859 64.0467ZM278.941 61.5233L276.472 57.7095L280.819 55.5433L283.294 59.3597L278.941 61.5233ZM284.021 59.0051L281.555 55.1861L285.902 53.0199L288.368 56.8389L284.021 59.0051ZM289.104 56.4817L286.638 52.6627L290.985 50.4966L293.451 54.3156L289.104 56.4817ZM294.186 53.9583L291.652 50.1036L295.999 47.9374L298.462 51.7616L294.186 53.9583ZM299.269 51.435L296.803 47.616L301.15 45.4498L303.616 49.2688L299.269 51.435ZM304.352 48.9116L301.883 45.0977L306.23 42.9316L308.699 46.7454L304.352 48.9116ZM236.592 88.4996L234.126 84.6806L238.479 82.517L240.833 86.3004L236.592 88.4996ZM241.675 85.9762L239.215 82.1597L243.131 80.2125L245.591 84.029L241.675 85.9762ZM246.321 83.6692L243.743 79.8146L248.09 77.6485L250.556 81.4675L246.321 83.6692ZM251.404 81.1458L248.823 77.2964L253.17 75.1303L255.639 78.9441L251.404 81.1458ZM256.486 78.6224L253.905 74.773L258.252 72.6069L260.721 76.4207L256.486 78.6224ZM261.566 76.1042L258.988 72.2497L263.335 70.0835L265.801 73.9025L261.566 76.1042ZM266.649 73.5808L264.071 69.7263L268.418 67.5601L270.889 71.3559L266.649 73.5808ZM271.732 71.0575L269.154 67.2029L273.5 65.0367L275.966 68.8557L271.732 71.0575ZM276.814 68.5341L274.233 64.6847L278.58 62.5185L281.049 66.3324L276.814 68.5341ZM281.897 66.0107L279.328 62.1406L283.674 59.9744L286.114 63.7884L281.897 66.0107ZM286.977 63.4925L284.399 59.6379L288.746 57.4717L291.214 61.2856L286.977 63.4925ZM292.059 60.9691L289.593 57.1501L293.946 54.9865L296.412 58.8055L292.059 60.9691ZM297.142 58.4457L294.523 54.5604L298.875 52.3968L301.339 56.221L297.142 58.4457ZM302.225 55.9223L299.759 52.1033L304.111 49.9397L306.578 53.7587L302.225 55.9223ZM307.307 53.399L304.838 49.5851L309.191 47.4215L311.66 51.2353L307.307 53.399ZM234.306 95.4544L231.84 91.6354L236.193 89.4718L238.659 93.2908L234.306 95.4544ZM239.389 92.931L236.923 89.112L241.276 86.9484L243.742 90.7674L239.389 92.931ZM244.472 90.4076L241.994 86.5835L245.91 84.6363L248.376 88.4553L244.472 90.4076ZM249.117 88.1006L246.651 84.2816L250.998 82.1154L253.464 85.9344L249.117 88.1006ZM254.2 85.5772L251.737 81.7659L256.084 79.5998L258.553 83.4136L254.2 85.5772ZM259.283 83.0538L256.814 79.24L261.167 77.0764L263.636 80.8902L259.283 83.0538ZM264.363 80.5356L261.897 76.7166L266.249 74.553L268.715 78.372L264.363 80.5356ZM269.445 78.0123L266.956 74.1572L271.302 71.9911L273.766 75.8153L269.445 78.0123ZM274.528 75.4889L272.062 71.6699L276.415 69.5062L278.881 73.3253L274.528 75.4889ZM279.611 72.9655L277.145 69.1465L281.495 66.988L283.964 70.8019L279.611 72.9655ZM284.693 70.4421L282.174 66.5872L286.527 64.4236L288.99 68.2478L284.693 70.4421ZM289.773 67.9239L287.307 64.1049L291.66 61.9413L294.129 65.7551L289.773 67.9239ZM294.856 65.4005L292.39 61.5815L296.743 59.4179L299.209 63.2369L294.856 65.4005ZM299.939 62.8771L297.399 59.0198L301.752 56.8562L304.215 60.6804L299.939 62.8771ZM305.021 60.3537L302.555 56.5347L306.908 54.3711L309.374 58.1901L305.021 60.3537ZM310.104 57.8304L307.635 54.0165L311.988 51.8529L314.457 55.6667L310.104 57.8304ZM315.187 55.307L312.623 51.4523L316.976 49.2887L319.439 53.1129L315.187 55.307ZM237.185 99.9086L234.719 96.0896L239.072 93.926L241.538 97.745L237.185 99.9086ZM242.268 97.3852L239.802 93.5662L244.155 91.4026L246.621 95.2216L242.268 97.3852ZM247.351 94.8618L244.885 91.0428L248.801 89.0956L251.267 92.9146L247.351 94.8618ZM251.991 92.5523L249.525 88.7333L253.877 86.5696L256.343 90.3887L251.991 92.5523ZM257.073 90.0289L254.604 86.2151L258.957 84.0514L261.426 87.8653L257.073 90.0289ZM262.153 87.5107L259.687 83.6917L264.04 81.5281L266.509 85.3419L262.153 87.5107ZM267.236 84.9873L264.77 81.1683L269.122 79.0047L271.589 82.8237L267.236 84.9873ZM272.318 82.4639L269.826 78.6141L274.179 76.4505L276.642 80.2746L272.318 82.4639ZM277.401 79.9405L274.935 76.1215L279.288 73.9579L281.754 77.7769L277.401 79.9405ZM282.484 77.4172L280.018 73.5981L284.368 71.4397L286.837 75.2535L282.484 77.4172ZM287.566 74.8938L285.05 71.0466L289.403 68.883L291.866 72.7072L287.566 74.8938ZM292.646 72.3756L290.18 68.5565L294.533 66.3929L296.999 70.2119L292.646 72.3756ZM297.729 69.8522L295.263 66.0332L299.616 63.8695L302.082 67.6886L297.729 69.8522ZM302.812 67.3288L300.275 63.4792L304.628 61.3156L307.091 65.1398L302.812 67.3288ZM307.894 64.8054L305.428 60.9864L309.781 58.8228L312.247 62.6418L307.894 64.8054ZM312.977 62.282L310.508 58.4682L314.864 56.2994L317.33 60.1184L312.977 62.282ZM318.06 59.7586L315.499 55.9117L319.852 53.7481L322.315 57.5723L318.06 59.7586ZM240.076 104.342L237.61 100.523L241.963 98.3595L244.429 102.179L240.076 104.342ZM245.158 101.819L242.692 97.9997L247.045 95.8361L249.511 99.6551L245.158 101.819ZM250.241 99.2954L247.775 95.4763L251.691 93.5291L254.157 97.3481L250.241 99.2954ZM254.881 96.9858L252.368 93.1722L256.721 91.0086L259.187 94.8276L254.881 96.9858ZM259.964 94.4624L257.46 90.6333L261.812 88.4697L264.293 92.3015L259.964 94.4624ZM265.047 91.939L262.531 88.1306L266.883 85.967L269.352 89.7808L265.047 91.939ZM270.126 89.4208L267.613 85.6072L271.966 83.4436L274.432 87.2626L270.126 89.4208ZM275.209 86.8974L272.702 83.0735L277.055 80.9099L279.518 84.734L275.209 86.8974ZM280.292 84.3741L277.779 80.5604L282.131 78.3968L284.598 82.2158L280.292 84.3741ZM285.374 81.8507L282.861 78.0371L287.214 75.8734L289.68 79.6925L285.374 81.8507ZM290.457 79.3273L287.944 75.5137L292.297 73.3501L294.742 77.1666L290.457 79.3273ZM295.54 76.8039L293.024 72.9955L297.377 70.8318L299.846 74.6457L295.54 76.8039ZM300.62 74.2857L298.107 70.4721L302.441 68.275L304.907 72.094L300.62 74.2857ZM305.702 71.7623L303.151 67.9386L307.504 65.775L309.967 69.5991L305.702 71.7623ZM310.785 69.2389L308.319 65.4199L312.672 63.2563L315.138 67.0753L310.785 69.2389ZM315.868 66.7155L313.399 62.9017L317.666 60.7076L320.132 64.5266L315.868 66.7155ZM320.95 64.1922L318.375 60.3711L322.728 58.2075L325.191 62.0317L320.95 64.1922ZM248.02 106.291L245.554 102.472L249.907 100.308L252.367 104.125L248.02 106.291ZM253.103 103.768L250.637 99.9487L254.553 98.0015L257.019 101.82L253.103 103.768ZM257.743 101.458L255.277 97.6391L259.629 95.4755L262.095 99.2945L257.743 101.458ZM262.825 98.9348L260.353 95.1003L264.706 92.9367L267.175 96.7505L262.825 98.9348ZM267.908 96.4114L265.439 92.5976L269.792 90.4339L272.261 94.2478L267.908 96.4114ZM272.988 93.8932L270.522 90.0742L274.875 87.9106L277.341 91.7296L272.988 93.8932ZM278.07 91.3698L275.578 87.5329L279.931 85.3692L282.394 89.1934L278.07 91.3698ZM283.153 88.8464L280.687 85.0274L285.04 82.8638L287.506 86.6828L283.153 88.8464ZM288.236 86.323L285.77 82.504L290.093 80.3019L292.553 84.1183L288.236 86.323ZM293.319 83.7997L290.802 79.9654L295.155 77.8018L297.612 81.6234L293.319 83.7997ZM298.401 81.2763L295.932 77.4624L300.285 75.2988L302.748 79.1101L298.401 81.2763ZM303.481 78.7581L301.015 74.939L305.318 72.7344L307.778 76.5509L303.481 78.7581ZM308.564 76.2347L306.027 72.398L310.38 70.2343L312.837 74.056L308.564 76.2347ZM313.646 73.7113L311.18 69.8923L315.533 67.7287L317.993 71.5451L313.646 73.7113ZM318.729 71.1879L316.26 67.3741L320.616 65.2053L323.076 69.0217L318.729 71.1879ZM250.976 110.778L248.51 106.959L252.856 104.793L255.323 108.612L250.976 110.778ZM256.058 108.255L253.592 104.436L257.42 102.451L259.886 106.27L256.058 108.255ZM260.698 105.946L258.232 102.127L262.585 99.9629L265.051 103.782L260.698 105.946ZM265.781 103.422L263.229 99.5597L267.579 97.4013L270.042 101.213L265.781 103.422ZM270.864 100.899L268.395 97.0849L272.748 94.9213L275.211 98.7326L270.864 100.899ZM275.946 98.3754L273.477 94.5615L277.824 92.3954L280.29 96.2144L275.946 98.3754ZM281.026 95.8572L278.454 91.9923L282.83 89.8388L285.29 93.6553L281.026 95.8572ZM286.109 93.3338L283.643 89.5148L287.99 87.3486L290.456 91.1676L286.109 93.3338ZM291.192 90.8104L288.725 86.9914L292.963 84.7587L295.429 88.5777L291.192 90.8104ZM296.274 88.287L293.678 84.4248L298.025 82.2586L300.489 86.0828L296.274 88.287ZM301.357 85.7636L298.888 81.9498L303.235 79.7836L305.704 83.5975L301.357 85.7636ZM306.437 83.2454L303.977 79.429L308.188 77.1912L310.654 81.0103L306.437 83.2454ZM311.519 80.722L308.903 76.8574L313.25 74.6912L315.713 78.5154L311.519 80.722ZM316.602 78.1987L314.136 74.3797L318.483 72.2135L320.949 76.0325L316.602 78.1987ZM321.685 75.6753L319.216 71.8614L323.572 69.6926L326.038 73.5117L321.685 75.6753ZM311.901 93.159L314.121 96.5949L309.768 98.7585L307.549 95.3227L311.901 93.159ZM306.822 95.6772L309.041 99.1131L304.688 101.277L302.301 97.8004L306.822 95.6772ZM301.621 98.1496L303.84 101.585L299.488 103.749L297.268 100.313L301.621 98.1496ZM296.538 100.673L298.758 104.109L294.405 106.272L292.185 102.837L296.538 100.673ZM291.456 103.196L293.675 106.632L289.322 108.796L287.076 105.368L291.456 103.196ZM286.379 105.709L288.598 109.145L284.245 111.309L282.026 107.873L286.379 105.709ZM281.296 108.233L283.518 111.663L279.165 113.827L276.943 110.396L281.296 108.233ZM319.028 83.5763L321.494 87.3953L317.142 89.5589L314.649 85.7736L319.028 83.5763ZM313.946 86.0997L316.412 89.9187L312.059 92.0823L309.593 88.2633L313.946 86.0997ZM308.863 88.6231L311.332 92.4369L306.979 94.6134L304.51 90.7996L308.863 88.6231ZM303.78 91.1464L306.241 95.0016L301.888 97.1652L299.425 93.341L303.78 91.1464ZM298.701 93.6647L301.167 97.4837L296.814 99.6473L294.348 95.8283L298.701 93.6647ZM293.618 96.188L296.084 100.007L291.731 102.171L289.265 98.3517L293.618 96.188ZM288.535 98.7114L291.001 102.53L286.654 104.697L284.182 100.875L288.535 98.7114ZM283.452 101.235L285.918 105.054L281.566 107.217L279.1 103.398L283.452 101.235ZM278.37 103.758L280.839 107.572L276.486 109.736L274.017 105.922L278.37 103.758ZM273.29 106.276L275.821 110.149L271.474 112.315L268.982 108.478L273.29 106.276ZM268.207 108.8L270.673 112.619L266.326 114.785L263.86 110.966L268.207 108.8ZM258.807 112.64L256.341 108.821L260.252 106.871L262.718 110.69L258.807 112.64ZM263.447 110.331L260.981 106.512L265.328 104.346L267.794 108.165L263.447 110.331ZM268.53 107.807L266.105 104.019L270.449 101.858L272.918 105.672L268.53 107.807ZM273.613 105.284L271.156 101.488L275.503 99.322L277.972 103.136L273.613 105.284ZM278.693 102.766L276.238 98.9648L280.615 96.7855L283.081 100.605L278.693 102.766ZM283.775 100.242L281.318 96.4465L285.665 94.2804L288.131 98.0994L283.775 100.242ZM288.858 97.719L286.386 93.8974L290.739 91.7338L293.205 95.5528L288.858 97.719ZM293.941 95.1956L291.487 91.3946L295.839 89.2181L298.305 93.0371L293.941 95.1956ZM299.023 92.6722L296.56 88.8867L300.907 86.7206L303.365 90.5422L299.023 92.6722ZM304.106 90.1488L301.649 86.353L306.002 84.1894L308.471 88.0032L304.106 90.1488ZM309.186 87.6306L306.732 83.8296L311.064 81.6506L313.53 85.4696L309.186 87.6306ZM314.268 85.1073L311.803 81.3269L316.156 79.1633L318.589 82.9748L314.268 85.1073ZM323.692 80.4152L319.345 82.5813L316.873 78.7598L321.226 76.5961L323.692 80.4152Z" fill="url(#paint1_linear_213_532)"/>
<path d="M308.34 108.374C307.081 107.506 305.901 106.552 304.81 105.523C303.058 106.613 301.244 107.626 299.375 108.556C274.985 120.657 246.315 116.636 235.259 99.539C225.149 83.9313 233.227 62.8801 253.184 50.0974C252.105 49.0907 251.156 47.9818 250.357 46.7911C227.945 61.0337 218.846 84.6212 230.121 102.057C242.445 121.137 274.453 125.637 301.648 112.118C303.958 110.982 306.192 109.732 308.34 108.374Z" fill="#352E35"/>
<path d="M257.754 47.4295L254.681 44.2483C251.581 45.9287 248.637 47.8219 245.878 49.9099L248.94 53.086C251.685 50.9795 254.634 49.0868 257.754 47.4295Z" fill="#D1D1D1"/>
<path d="M301.385 107.47L304.453 110.649C307.537 108.945 310.464 107.032 313.208 104.928L310.135 101.747C307.415 103.876 304.487 105.791 301.385 107.47Z" fill="#D1D1D1"/>
<g style="mix-blend-mode:soft-light">
<path d="M324.658 54.7972C335.529 71.6214 325.668 94.6606 302.652 107.028C303.301 106.743 303.941 106.44 304.57 106.12C328.409 94.2958 337.597 71.2032 326.458 53.9289C315.319 36.6545 286.397 33.6303 266.189 42.2525C260.113 44.8609 254.385 48.0537 249.113 51.7722C251.829 50.2129 262.108 44.1155 269.902 41.6067C291.744 34.5397 314.916 39.7347 324.658 54.7972Z" fill="white"/>
</g>
<path d="M232.017 101.372C220.643 83.7712 232.236 65.9635 236.669 58.9333C224.291 71.5073 221.357 88.5305 230.246 102.253C239.98 117.318 261.91 122.375 280.674 118.66C269.707 119.809 242.205 117.142 232.017 101.372Z" fill="#2B242A"/>
<path d="M202.149 122.74C201.782 122.893 201.36 122.913 200.976 122.795C200.592 122.677 200.277 122.431 200.098 122.11L195.196 114.524C194.972 114.225 194.893 113.86 194.976 113.51C195.058 113.16 195.296 112.853 195.636 112.656C196.004 112.502 196.426 112.481 196.81 112.599C197.195 112.717 197.51 112.964 197.687 113.286L202.587 120.865C202.81 121.165 202.889 121.53 202.807 121.881C202.725 122.232 202.489 122.541 202.149 122.74Z" fill="#2B242A"/>
<path d="M195.17 113.692L190.324 116.103L196.047 124.956L200.892 122.545L195.17 113.692Z" fill="#161013"/>
<path d="M196.442 125.579C196.073 125.734 195.65 125.754 195.265 125.635C194.879 125.517 194.563 125.269 194.385 124.947L189.486 117.368C189.263 117.068 189.184 116.703 189.265 116.352C189.347 116.001 189.584 115.692 189.923 115.493C190.292 115.339 190.715 115.32 191.1 115.44C191.485 115.559 191.8 115.807 191.977 116.13L196.877 123.709C197.098 124.008 197.177 124.372 197.095 124.722C197.014 125.072 196.779 125.38 196.442 125.579Z" fill="#2B242A"/>
</g>
<path d="M145.977 245.196C143.873 239.426 145.101 194.714 145.977 173.079L157.967 176.829C156.98 185.483 168.663 212.888 168.663 215.235C175.654 211.322 187.483 208.369 194.966 207.118C199.679 211.638 208.775 221.022 207.46 222.407C205.816 224.138 148.608 252.407 145.977 245.196Z" fill="#FF7CA6"/>
<mask id="mask0_213_532" style="mask-type:alpha" maskUnits="userSpaceOnUse" x="144" y="173" width="64" height="74">
<path d="M145.979 245.195C143.874 239.426 145.102 194.714 145.979 173.079L157.968 176.829C156.982 185.483 168.665 212.887 168.665 215.235C175.655 211.322 187.484 208.369 194.967 207.118C199.68 211.637 208.776 221.022 207.461 222.407C205.817 224.137 148.609 252.407 145.979 245.195Z" fill="#FF7CA6"/>
</mask>
<g mask="url(#mask0_213_532)">
<path d="M142.034 249.234C139.929 243.465 141.157 198.753 142.034 177.118L154.023 180.868C153.037 189.522 164.72 216.926 164.72 219.273C171.71 215.361 183.539 212.407 191.023 211.157C195.735 215.676 204.831 225.061 203.516 226.445C201.872 228.176 144.664 256.446 142.034 249.234Z" fill="#FB94B5"/>
<path d="M140.061 255.003C137.957 249.234 139.184 204.522 140.061 182.887L151.393 178.848C150.407 187.502 162.747 222.695 162.747 225.043C169.737 221.13 181.566 218.176 189.05 216.926C193.762 221.445 202.859 230.83 201.544 232.214C199.9 233.945 142.691 262.215 140.061 255.003Z" fill="#FFAFC9"/>
<path d="M146.791 187.502C147.054 185.887 145.804 180.867 145.147 178.56L135.612 245.484C140.325 246.734 150.21 249.349 152.051 249.811C154.353 250.388 170.878 241.007 168.491 241.157C159.285 241.734 149.092 245.195 148.106 244.041C147.12 242.887 147.448 240.868 147.448 237.118C147.448 234.106 147.12 219.233 146.791 216.926C146.462 214.618 146.791 208.849 146.791 207.406C146.791 205.964 146.462 189.521 146.791 187.502Z" fill="#FEF2F7"/>
</g>
<path d="M213.447 493.834C205.785 485.55 221.01 387.461 229.58 339.453C245.866 334.093 263.242 316.749 269.894 308.747C270.01 310.093 272.156 315.144 279.823 324.582C287.49 334.019 292.285 343.485 293.725 347.038C294.916 380.958 274.824 441.323 264.629 467.266C296.175 469.667 331.85 499.693 346.034 514.76L338.889 536.129C334.385 533.451 317.934 525.465 288.169 514.944C250.962 501.792 223.025 504.188 213.447 493.834Z" fill="url(#paint2_linear_213_532)"/>
<mask id="mask1_213_532" style="mask-type:alpha" maskUnits="userSpaceOnUse" x="211" y="308" width="136" height="229">
<path d="M213.447 493.834C205.785 485.55 221.01 387.461 229.58 339.453C245.866 334.093 263.242 316.749 269.894 308.747C270.01 310.093 272.156 315.144 279.823 324.582C287.49 334.019 292.285 343.485 293.725 347.038C294.916 380.958 274.824 441.323 264.629 467.266C296.175 469.667 331.85 499.693 346.034 514.76L338.889 536.129C334.385 533.451 317.934 525.465 288.169 514.944C250.962 501.792 223.025 504.188 213.447 493.834Z" fill="#F89AB8"/>
</mask>
<g mask="url(#mask1_213_532)">
<path d="M205.583 499.628C197.921 491.344 213.144 393.256 221.714 345.247C237.999 339.887 253 320.243 259.653 312.241C259.768 313.587 264.29 320.938 271.956 330.375C279.623 339.813 270.578 341.534 272.017 345.087C273.175 378.04 269.33 437.555 259.625 464.84C258.781 466.085 258.642 467.422 258.435 468.241C258.379 468.459 258.428 468.696 258.593 468.849C259.146 469.359 260.431 470.469 261.293 470.604C293.861 475.116 345.492 517.468 359.196 532.025L331.025 541.922C326.521 539.244 310.07 531.258 280.304 520.737C243.097 507.586 215.16 509.982 205.583 499.628Z" fill="#FBC6D7"/>
<mask id="mask2_213_532" style="mask-type:alpha" maskUnits="userSpaceOnUse" x="203" y="312" width="157" height="230">
<path d="M205.58 499.628C197.918 491.344 213.143 393.256 221.713 345.247C237.999 339.887 253 320.243 259.653 312.242C259.768 313.587 264.29 320.939 271.956 330.376C279.623 339.813 270.577 341.534 272.017 345.088C273.175 378.041 269.329 437.556 259.623 464.841C258.779 466.085 258.64 467.422 258.433 468.242C258.377 468.46 258.426 468.697 258.591 468.849C259.144 469.359 260.429 470.469 261.291 470.605C293.859 475.117 345.49 517.47 359.193 532.027L331.022 541.924C326.518 539.246 310.067 531.259 280.302 520.738C243.095 507.586 215.158 509.982 205.58 499.628Z" fill="#FBC6D7"/>
</mask>
<g mask="url(#mask2_213_532)">
<path d="M251.258 446.693C257.98 402.536 245.393 362.479 251.621 357.844C278.744 423.913 359.781 530.465 354.246 527.713L342.41 527.751C335.426 508.446 267.601 485.584 255.06 474.085C250.243 469.669 250.078 452.947 251.258 446.693Z" fill="#FEB3CB"/>
</g>
<path d="M231.658 380.408C235.564 370.934 240.062 345.381 238.367 333.078C210.824 351.339 204.128 481.459 204.172 492.132C204.208 500.671 280.648 539.871 318.864 558.403L353.294 536.082C338.128 525.842 279.458 506.605 272.601 502.011C264.029 496.269 227.525 494.366 223.231 489.475C218.937 484.585 223.117 461.783 223.055 446.783C222.993 431.783 226.775 392.251 231.658 380.408Z" fill="#FEF2F7"/>
</g>
<path d="M232.286 353.37L194.147 319.042C146.473 357.12 138.253 390.005 129.047 405.005C119.841 420.005 122.472 415.967 114.91 437.89C107.347 459.813 77.7569 516.929 78.4145 526.16C78.9405 533.545 91.785 533.853 98.1415 533.083C154.166 460.159 159.734 435.39 155.021 431.832C193.16 410.601 222.093 370.485 232.286 353.37Z" fill="#FF7CA6"/>
<mask id="mask3_213_532" style="mask-type:alpha" maskUnits="userSpaceOnUse" x="78" y="319" width="155" height="215">
<path d="M232.286 353.37L194.147 319.042C146.473 357.12 138.253 390.005 129.047 405.005C119.841 420.005 122.472 415.967 114.91 437.89C107.347 459.813 77.7569 516.929 78.4145 526.16C78.9405 533.545 91.785 533.853 98.1415 533.083C154.166 460.159 159.734 435.39 155.021 431.832C193.16 410.601 222.093 370.485 232.286 353.37Z" fill="#FF7CA6"/>
</mask>
<g mask="url(#mask3_213_532)">
<path d="M225.71 353.37L187.571 319.042C139.897 357.12 131.678 390.005 122.472 405.005C113.266 420.005 115.896 415.967 108.334 437.89C100.772 459.813 71.1813 516.929 71.8389 526.16C72.365 533.545 85.2095 533.853 91.566 533.083C140.608 469.248 147.918 446.929 149.092 434.717C149.26 432.978 150.736 431.255 150.408 429.525C152.081 428.593 154.693 427.919 156.326 426.928C191.896 405.353 215.965 369.734 225.71 353.37Z" fill="#FEB3CB"/>
<path d="M212.219 336.639L183.626 315.004C135.952 353.081 127.732 385.966 118.527 400.967C109.321 415.967 111.951 411.928 104.389 433.852C96.8267 455.775 67.2362 512.891 67.8937 522.122C68.4198 529.507 82.5686 531.257 88.9251 530.488C109.31 502.795 139.699 446.064 140.873 433.852C141.04 432.113 142.517 430.39 142.188 428.659C143.862 427.727 150.748 423.88 152.38 422.89C187.951 401.314 202.474 353.003 212.219 336.639Z" fill="#FBC6D7"/>
<path d="M161.587 362.024C164.481 358.793 187.123 334.331 198.082 322.504C196.658 320.389 192.69 316.504 188.219 317.889C182.629 319.619 163.56 330.004 134.627 353.947C105.694 377.889 67.8837 521.834 65.911 525.584C64.3328 528.584 74.021 529.526 79.0623 529.622C88.3779 508.564 107.798 464.833 110.954 458.371C114.9 450.294 126.736 418.563 128.38 414.813C130.024 411.063 157.971 366.062 161.587 362.024Z" fill="#FEF2F7"/>
</g>
<path d="M241.48 401.543C211.758 367.389 181.093 346.927 169.476 340.965C171.054 336.581 185.258 324.715 192.162 319.331C218.728 358.562 255.618 332.6 270.742 314.715C307.04 332.485 297.045 374.043 287.51 392.601C276.879 396.447 255.618 403.62 255.618 401.543V382.504C251.146 388.043 244.329 397.505 241.48 401.543Z" fill="url(#paint3_linear_213_532)"/>
<mask id="mask4_213_532" style="mask-type:alpha" maskUnits="userSpaceOnUse" x="169" y="314" width="128" height="88">
<path d="M241.48 401.543C211.758 367.389 181.093 346.927 169.476 340.965C171.054 336.581 185.258 324.715 192.162 319.331C218.728 358.562 255.618 332.6 270.742 314.715C307.04 332.485 297.045 374.043 287.51 392.601C276.879 396.447 255.618 403.62 255.618 401.543V382.504C251.146 388.043 244.329 397.505 241.48 401.543Z" fill="url(#paint4_linear_213_532)"/>
</mask>
<g mask="url(#mask4_213_532)">
<path d="M167.833 332.889C179.164 340.204 186.346 343.235 205.314 360.293C226.685 375.87 240.642 390.149 245.426 394.332C253.348 401.258 250.818 399.186 251.344 400.966C271.729 396.351 288.102 390.985 298.36 384.524" stroke="white" stroke-opacity="0.5" stroke-width="0.563862"/>
<path d="M262.522 320.783C270.193 320.206 296.715 344.725 275.015 400.976" stroke="white" stroke-opacity="0.49" stroke-width="0.563862"/>
<path d="M252.658 350.485C251.343 355.966 243.233 358.85 238.849 360.004V355.677C242.795 357.293 248.384 354.523 252.658 350.485Z" fill="url(#paint5_linear_213_532)"/>
<path d="M206.957 345.004C215.724 348.658 236.745 353.773 250.685 345.004C247.726 352.312 234.838 362.543 206.957 345.004Z" fill="url(#paint6_linear_213_532)"/>
<path d="M268.44 313.963C273.355 316.365 281.706 328.782 284.88 348.754C286.207 357.111 290.371 364.895 287.839 374.428C285.762 382.246 280.644 394.31 274.687 402.234L312.498 388.676C310.086 365.599 302.766 318.348 292.77 313.963C282.775 309.579 272.386 312.136 268.44 313.963Z" fill="#647B64" fill-opacity="0.5"/>
<path d="M176.052 339.812C180.326 343.85 201.04 360.581 200.711 363.178L166.517 340.677L169.805 330.869L191.834 316.446C198.409 319.235 210.64 325.677 206.958 329.139C203.275 332.6 197.971 328.85 195.779 326.542C189.203 329.139 187.888 329.139 185.587 330.869C183.285 336.35 176.052 339.235 176.052 339.812Z" fill="url(#paint7_linear_213_532)"/>
</g>
<path d="M259.327 260.195C261.431 281.196 270.067 307.023 274.122 317.312C233.682 367.216 196.858 336.062 192.912 324.812C189.756 315.812 190.063 280.484 190.611 263.946C181.734 260.195 163.65 240.291 177.459 230.484C188.507 222.637 209.038 207.695 219.779 199.329H238.191C259.89 213.464 256.696 233.945 259.327 260.195Z" fill="url(#paint8_linear_213_532)"/>
<mask id="mask5_213_532" style="mask-type:alpha" maskUnits="userSpaceOnUse" x="172" y="199" width="103" height="146">
<path d="M259.328 260.195C261.432 281.196 270.068 307.023 274.123 317.312C233.683 367.216 196.859 336.062 192.914 324.812C189.757 315.812 190.064 280.484 190.612 263.946C181.735 260.195 163.652 240.291 177.461 230.484C188.508 222.637 209.04 207.695 219.78 199.329H238.192C259.892 213.464 256.698 233.945 259.328 260.195Z" fill="url(#paint9_linear_213_532)"/>
</mask>
<g mask="url(#mask5_213_532)">
<path d="M243.453 221.828C243.453 235.369 231.984 242.311 217.398 242.311C202.812 242.311 188.874 231.334 188.874 217.793C188.874 204.253 200.343 197.31 214.929 197.31C229.515 197.31 243.453 208.287 243.453 221.828Z" fill="#647B64"/>
<path d="M240.992 221.07C240.992 233.396 230.353 239.715 216.821 239.715C203.289 239.715 188.874 228.858 188.874 216.532C188.874 204.207 199.514 197.887 213.046 197.887C226.577 197.887 240.992 208.745 240.992 221.07Z" fill="#647B64"/>
<path d="M196.108 282.327C197.947 275.752 187.009 265.531 184.272 262.792L179.011 323.506L186.893 332.312C197.729 329.67 189.645 315.791 196.108 303.754C200.049 296.416 193.81 290.545 196.108 282.327Z" fill="url(#paint10_linear_213_532)"/>
<path d="M202.656 292.504C204.958 302.215 196.409 315.004 223.698 330.004C206.601 330.004 194.502 323.427 202.656 292.504Z" fill="url(#paint11_linear_213_532)"/>
<path d="M204.84 296.907C206.508 299.927 204.959 304.739 215.211 307.689C209.682 308.923 205.144 307.639 204.84 296.907Z" fill="url(#paint12_linear_213_532)"/>
<path d="M247.545 237.616C247.545 228.962 247.347 219.824 240.784 212.311C246.142 214.031 253.792 225.501 247.545 237.616Z" fill="url(#paint13_linear_213_532)"/>
<path d="M189.532 263.946C198.249 262.767 202.684 264.811 216.935 257.311C214.573 259.607 192.82 277.503 189.532 263.946Z" fill="#647B64"/>
<path d="M301.319 294.688C295.251 305.35 285.489 294.688 274.276 294.688C253.828 272.09 257.503 244.451 253.828 224.592C242.944 190.405 209.964 204.005 194.793 195.313C204.467 188.456 242.483 181.568 253.828 190.839C268.009 202.428 301.319 282.23 301.319 294.688Z" fill="#647B64"/>
<path d="M170.463 240.563L183.614 214.89L191.505 218.562L189.204 223.849C187.147 227.785 182.566 234.014 176.71 237.425C173.751 237.425 175.876 248.215 175.066 248.64C173.67 249.373 171.506 240.158 170.463 240.563Z" fill="url(#paint14_linear_213_532)"/>
</g>
<path d="M380.536 523.592L373.618 520.441C363.065 592.303 335.443 591.525 324.223 581.464C352.296 611.953 374.074 551.305 374.401 550.727C381.99 541.472 385.165 529.924 385.467 523.576L380.536 523.592Z" fill="#CAF4F3"/>
<path d="M345.628 510.145C345.382 513.332 344.241 518.001 339.925 524.6C337.343 521.925 333.739 518.401 331.849 517.4C328.57 519.43 324.672 530.981 323.691 532.138C325.802 533.978 330.066 536.733 331.934 537.881C325.138 548.288 323.743 571.273 323.894 581.465C351.612 605.608 370.794 553.143 376.92 523.892C373.474 517.441 358.138 513.951 350.901 513.013L345.628 510.145Z" fill="#F6FEFD"/>
<path d="M327.622 571.739C330.252 574.047 336.499 576.355 344.719 571.739" stroke="#14D1A4" stroke-width="1.69158" stroke-linecap="round" stroke-linejoin="round"/>
<path d="M328.938 563.661C331.568 565.969 339.788 567.701 346.034 563.661" stroke="#14D1A4" stroke-width="1.69158" stroke-linecap="round" stroke-linejoin="round"/>
<path d="M331.568 556.161C333.592 557.661 338.144 559.335 344.72 556.161" stroke="#14D1A4" stroke-width="1.69158" stroke-linecap="round" stroke-linejoin="round"/>
<path d="M324.213 579.156C331.909 584.901 350.157 587.613 361.585 552.499" stroke="#CEF4F4" stroke-width="1.12772" stroke-linecap="round" stroke-linejoin="round"/>
<path d="M356.819 536.378C346.686 538.222 341.94 538.778 335.458 538.753C335.465 540.6 336.567 542.019 337.117 542.498C344.751 544.089 353.433 539.081 356.819 536.378Z" stroke="#14D1A4" stroke-width="0.563862" stroke-linecap="round"/>
<path d="M335.463 540.484C339.419 543.068 347.073 549.448 346.041 554.297C343.404 552.767 337.597 547.862 335.463 540.484Z" stroke="#14D1A4" stroke-width="0.563862"/>
<path d="M313.463 547.255C322.745 543.442 324.815 542.325 333.484 538.836C333.959 540.833 333.401 540.81 333.301 541.485C327.284 550.106 318.027 547.567 313.463 547.255Z" stroke="#14D1A4" stroke-width="0.563862" stroke-linecap="round"/>
<path d="M333.875 540.009C331.033 543.545 326.022 551.698 328.724 556.025C330.686 553.85 334.465 547.603 333.875 540.009Z" stroke="#14D1A4" stroke-width="0.563862"/>
<path d="M336.164 539.328C336.166 539.936 335.595 540.491 334.807 540.493C334.019 540.496 333.442 539.945 333.44 539.337C333.437 538.729 334.009 538.174 334.797 538.172C335.585 538.169 336.161 538.721 336.164 539.328Z" fill="#14D1A4" stroke="#14D1A4" stroke-width="0.563862"/>
<path d="M51.4787 588.46C28.0424 592.987 29.0068 578.353 32.4185 570.47C37.6656 593.662 77.3368 578.907 96.5165 568.63C96.5786 569.632 96.6565 571.805 96.4711 572.478C96.2394 573.319 80.774 582.801 51.4787 588.46Z" fill="#C5F4F2"/>
<path d="M93.9522 558.292C97.3932 550.712 98.9429 538.079 98.7868 532.506C95.983 532.861 82.7682 529.31 77.0121 527.694C75.3129 533.863 68.1566 545.106 64.9155 548.277C45.9661 555.18 35.3553 565.948 32.4186 570.47C29.334 600.086 93.8586 574.595 96.1304 570.031C97.9479 566.381 95.4355 560.684 93.9522 558.292Z" fill="#F1FEFC"/>
<path d="M44.2091 559.622C46.0722 559.91 50.719 561.641 54.4014 566.256" stroke="#14D1A4" stroke-width="1.69158" stroke-linecap="round" stroke-linejoin="round"/>
<path d="M52.7567 553.853C54.6198 554.141 59.2667 555.872 62.949 560.487" stroke="#14D1A4" stroke-width="1.69158" stroke-linecap="round" stroke-linejoin="round"/>
<path d="M62.6207 548.66C64.4838 548.949 66.8292 549.237 70.5116 553.853" stroke="#14D1A4" stroke-width="1.69158" stroke-linecap="round" stroke-linejoin="round"/>
<path d="M79.7156 517.881L77.0122 527.694C82.053 534.936 92.1817 535.659 97.0127 534.903C97.4986 532.157 99.8181 527.584 100.917 525.641C96.3345 519.683 84.8733 517.985 79.7156 517.881Z" fill="#F7FFFD"/>
<path d="M35.1301 570.451C36.0542 575.692 42.8643 584.615 62.7128 578.377" stroke="#AAFEE7" stroke-width="1.69158"/>
<path d="M86.6764 565.059C75.3897 569.195 68.7635 577.286 65.4451 580.737C68.5045 580.437 76.3678 577.514 79.917 576.09L86.6764 565.059Z" fill="#AAFEE7" stroke="#DAFFF5" stroke-width="0.563862"/>
<path d="M77.5688 529.53C82.0929 530.368 91.5962 532.893 93.4162 536.294C95.6911 540.544 80.0005 536.241 77.5688 529.53Z" fill="white" stroke="#14D1A4" stroke-width="0.563862"/>
<path d="M77.4198 529.889C79.4402 533.959 83.1626 542.829 81.8897 545.75C78.9865 543.648 74.0282 537.533 77.4198 529.889Z" fill="white" stroke="#14D1A4" stroke-width="0.563862"/>
<path d="M76.494 529.235C72.2313 527.663 62.7803 524.991 59.0772 526.877C54.4482 529.234 70.1389 533.537 76.494 529.235Z" stroke="#14D1A4" stroke-width="0.563862"/>
<path d="M76.3834 529.605C72.081 531.941 63.2637 537.372 62.4143 540.409C66.1651 540.132 74.21 537.583 76.3834 529.605Z" stroke="#14D1A4" stroke-width="0.563862"/>
<path d="M78.1945 530.423C77.9683 530.976 77.6082 531.415 77.2226 531.682C76.836 531.949 76.4492 532.03 76.1336 531.93C75.818 531.831 75.578 531.553 75.4735 531.131C75.3692 530.71 75.4093 530.17 75.6354 529.617C75.8616 529.065 76.2217 528.626 76.6073 528.359C76.994 528.091 77.3807 528.011 77.6963 528.11C78.0119 528.21 78.2519 528.488 78.3564 528.91C78.4607 529.331 78.4206 529.87 78.1945 530.423Z" fill="#14D1A4" stroke="#14D1A4" stroke-width="0.563862"/>
<path d="M220.908 169.158C236.134 185.096 227.252 201.319 220.908 204.432C202.885 226.597 190.223 204.958 185.95 193.439C183.62 183.166 187.348 177.314 194.495 171.337C201.642 165.36 213.528 163.554 220.908 169.158Z" fill="#FF7CA6"/>
<mask id="mask6_213_532" style="mask-type:alpha" maskUnits="userSpaceOnUse" x="185" y="165" width="45" height="50">
<path d="M221.565 168.974C236.791 184.984 227.909 201.28 221.565 204.407C203.542 226.671 190.516 204.842 186.244 193.272C183.913 182.953 188.006 177.167 195.153 171.163C202.299 165.159 214.185 163.346 221.565 168.974Z" fill="#FF7CA6"/>
</mask>
<g mask="url(#mask6_213_532)">
<path d="M218.136 170.772C234.575 185.484 227.35 199.221 221.042 202.329C203.119 224.456 187.877 202.11 183.628 190.612C181.31 180.357 182.731 189.333 193.11 186.004C214.519 179.137 217.149 169.041 218.136 170.772Z" fill="#FEB3CB"/>
<path d="M218.135 172.791C235.56 193.56 224.15 201.697 217.806 204.811C199.783 226.975 185.584 199.598 181.311 188.08C185.256 188.656 188.541 193.694 199.065 188.945C210.573 183.753 210.573 185.195 218.135 172.791Z" fill="#FBC6D7"/>
<path d="M216.898 181.708C216.047 179.238 216.338 174.307 218.449 175.327C219.674 175.327 221.131 180.807 221.131 180.807C223.39 186.158 224.849 195.94 222.412 197.599C218.706 193.805 216.743 191.602 207.803 191.253C203.909 186.638 218.449 186.213 216.898 181.708Z" fill="#FEF2F7" fill-opacity="0.3"/>
</g>
<path d="M196.108 141.547C195.056 142.701 190.848 143.951 188.875 144.431C194.793 151.354 208.668 166.009 216.822 169.239C224.975 172.47 227.233 184.047 227.343 189.432C227.869 190.355 228.219 196.74 228.329 199.817C231.748 199.586 232.751 194.913 232.824 192.605C233.513 196.175 233.031 201.087 232.603 203.567C237.338 203.797 243.758 198.278 246.376 195.49C247.001 201.721 246.107 205.116 245.426 206.163C248.056 205.009 254.632 201.259 259.892 195.49C266.468 188.278 258.248 181.066 255.289 179.913C252.33 178.759 251.673 154.528 250.686 148.47C249.897 143.624 242.028 137.412 238.193 134.912C206.958 122.22 197.423 140.104 196.108 141.547Z" fill="url(#paint15_linear_213_532)"/>
<path d="M231.625 178.863C229.784 177.248 225.159 180.978 223.406 183.478C222.32 184.921 221.762 189.536 228.337 186.94C234.913 184.344 233.927 180.882 231.625 178.863Z" fill="#FBC6D7" stroke="url(#paint16_linear_213_532)" stroke-width="0.563862"/>
<path fill-rule="evenodd" clip-rule="evenodd" d="M228.046 181.377C226.935 182.231 225.92 183.485 225.327 184.384C225.236 184.522 225.035 184.569 224.878 184.489C224.721 184.409 224.667 184.233 224.758 184.095C225.371 183.166 226.428 181.853 227.613 180.943C228.204 180.488 228.85 180.117 229.507 179.956C230.18 179.792 230.867 179.85 231.487 180.258C231.632 180.354 231.662 180.535 231.553 180.662C231.444 180.79 231.238 180.816 231.092 180.72C230.66 180.436 230.191 180.388 229.683 180.512C229.161 180.639 228.602 180.949 228.046 181.377ZM230.095 181.131C230.236 181.03 230.443 181.049 230.558 181.172C230.819 181.453 231.078 181.801 231.243 182.165C231.405 182.523 231.493 182.935 231.346 183.315C231.192 183.714 230.809 184.007 230.203 184.165C229.608 184.32 228.772 184.355 227.635 184.237C227.454 184.219 227.325 184.075 227.346 183.917C227.368 183.759 227.531 183.646 227.711 183.664C228.81 183.778 229.544 183.735 230.015 183.612C230.476 183.492 230.655 183.306 230.723 183.13C230.799 182.935 230.767 182.678 230.632 182.378C230.498 182.083 230.28 181.786 230.049 181.537C229.934 181.414 229.955 181.232 230.095 181.131Z" fill="#FC719A"/>
<path d="M196.437 180.868C176.447 191.945 162.572 177.118 157.969 167.887C169.148 158.079 167.184 159.607 176.71 154.906C181.971 152.31 184.601 153.176 186.574 143.079C190.782 143.772 211.561 146.252 218.795 159.233L221.096 159.522C248.714 163.676 252.221 152.502 250.358 146.541C263.246 165.464 234.357 167.599 218.795 166.156C217.479 168.753 216.427 169.791 196.437 180.868Z" fill="url(#paint17_linear_213_532)"/>
<mask id="mask7_213_532" style="mask-type:alpha" maskUnits="userSpaceOnUse" x="157" y="143" width="97" height="42">
<path d="M196.437 180.868C176.447 191.945 162.572 177.118 157.969 167.887C169.148 158.079 167.184 159.607 176.71 154.906C181.971 152.31 184.601 153.176 186.574 143.079C190.782 143.772 211.561 146.252 218.795 159.233L221.096 159.522C248.714 163.676 252.221 152.502 250.358 146.541C263.246 165.464 234.357 167.599 218.795 166.156C217.479 168.753 216.427 169.791 196.437 180.868Z" fill="url(#paint18_linear_213_532)"/>
</mask>
<g mask="url(#mask7_213_532)">
<path d="M176.053 191.253L209.589 177.118C203.342 171.926 190.519 177.107 181.971 169.896C173.423 162.684 182.629 157.492 174.08 155.184L147.449 166.445L176.053 191.253Z" fill="url(#paint19_linear_213_532)" fill-opacity="0.3"/>
<path d="M172.254 159.898C160.367 163.796 161.804 165.721 158.299 169.356L155.997 166.471L166.847 155.798L184.602 139.329C191.506 142.791 184.761 151.688 182.958 152.887C179.305 155.315 177.344 154.955 174.203 158.571C173.679 159.174 173.013 159.649 172.254 159.898Z" fill="#C1DBF7"/>
</g>
<path d="M186.246 153.752C186.574 157.406 195.123 163.65 215.507 166.246" stroke="#BAD4F6" stroke-width="0.563862" stroke-linecap="round" stroke-linejoin="round"/>
<path d="M201.616 153.039C196.414 151.941 194.332 150.947 191.752 148.361C190.816 150.619 192.751 155.206 194.013 155.284C194.279 155.3 199.168 152.92 201.616 153.039Z" fill="#B8D2F6"/>
<path d="M195.12 225.291C182.692 213.705 151.721 187.099 138.526 177.283C138.128 176.987 137.881 176.553 137.963 176.064C138.973 170.074 153.238 148.395 170.79 133.271C173.749 126.925 176.051 127.213 179.338 119.136C181.969 112.674 189.202 111.828 193.147 113.078C194.463 113.495 193.496 115.267 191.175 115.674C187.887 116.251 185.585 119.136 185.585 120.867C185.585 122.056 184.27 129.521 193.805 126.059C196.435 123.174 198.079 128.078 187.558 134.713C179.338 137.886 155.995 168.429 158.625 169.906C165.548 171.709 175.491 185.751 197.75 191.252C221.094 197.022 242.794 209.137 234.903 225.291C227.012 241.445 210.902 240.003 195.12 225.291Z" fill="#FF7CA6"/>
<mask id="mask8_213_532" style="mask-type:alpha" maskUnits="userSpaceOnUse" x="137" y="112" width="100" height="125">
<path d="M195.122 225.291C182.693 213.705 151.722 187.099 138.527 177.283C138.129 176.987 137.883 176.553 137.965 176.064C138.974 170.074 153.24 148.395 170.792 133.271C173.751 126.925 176.052 127.213 179.34 119.136C181.97 112.674 189.204 111.828 193.149 113.078C194.464 113.495 193.498 115.267 191.176 115.674C187.888 116.251 185.587 119.136 185.587 120.867C185.587 122.056 184.272 129.521 193.807 126.059C196.437 123.174 198.081 128.078 187.56 134.713C179.34 137.886 155.996 168.429 158.627 169.906C165.55 171.709 175.492 185.751 197.752 191.252C221.096 197.022 242.795 209.137 234.905 225.291C227.014 241.445 210.903 240.003 195.122 225.291Z" fill="#FF7CA6"/>
</mask>
<g mask="url(#mask8_213_532)">
<path d="M190.851 227.512C178.423 215.926 147.452 189.32 134.257 179.504C133.859 179.207 133.612 178.774 133.695 178.285C134.704 172.294 148.969 150.616 166.521 135.491C169.48 129.145 171.782 129.434 175.07 121.356C177.7 114.895 189.202 110.674 193.147 111.925C194.463 112.341 194.811 115.556 192.49 115.963C189.202 116.54 187.229 118.774 186.572 120.793C186.199 121.937 183.613 128.669 193.147 125.208C195.778 122.323 197.093 128.944 183.941 135.491C175.722 138.664 151.726 170.649 154.356 172.126C161.279 173.93 171.222 187.971 193.482 193.473C216.825 199.242 238.525 211.358 230.634 227.512C222.743 243.666 206.633 242.223 190.851 227.512Z" fill="#FEB3CB"/>
<mask id="mask9_213_532" style="mask-type:alpha" maskUnits="userSpaceOnUse" x="133" y="111" width="100" height="129">
<path d="M190.851 227.512C178.423 215.926 147.452 189.32 134.257 179.504C133.859 179.207 133.612 178.774 133.695 178.285C134.704 172.294 148.969 150.616 166.521 135.491C169.48 129.145 171.782 129.434 175.07 121.356C177.7 114.895 189.202 110.674 193.147 111.925C194.463 112.341 194.811 115.556 192.49 115.963C189.202 116.54 187.229 118.774 186.572 120.793C186.199 121.937 183.613 128.669 193.147 125.208C195.778 122.323 197.093 128.944 183.941 135.491C175.722 138.664 151.726 170.649 154.356 172.126C161.279 173.93 171.222 187.971 193.482 193.473C216.825 199.242 238.525 211.358 230.634 227.512C222.743 243.666 206.633 242.223 190.851 227.512Z" fill="#FEB3CB"/>
</mask>
<g mask="url(#mask9_213_532)">
<path d="M187.563 227.731C175.135 216.145 144.164 189.539 130.968 179.723C130.57 179.427 130.324 178.993 130.406 178.504C131.416 172.513 145.681 150.835 163.233 135.711C166.192 129.364 168.493 129.653 171.781 121.576C174.412 115.114 193.476 110.098 197.421 111.348C198.736 111.764 200.051 118.34 193.804 117.405C190.499 116.911 190.851 119.557 190.193 121.576C189.821 122.719 185.914 126.925 195.448 123.463C198.079 120.578 198.407 126.147 185.256 132.694C177.036 135.867 148.438 170.869 151.068 172.346C157.991 174.149 167.934 188.191 190.193 193.692C213.537 199.461 235.237 211.577 227.346 227.731C219.455 243.885 203.345 242.443 187.563 227.731Z" fill="#FBC6D7"/>
<path d="M191.504 113.944C199.066 119.136 198.817 109.905 193.805 109.04C188.216 110.963 171.894 117.29 170.053 117.982C167.752 118.848 134.624 178.271 131.994 180.002C129.89 181.387 146.57 190.387 152.707 198.464L221.094 243.753C222.738 237.695 218.267 235.041 212.217 232.503C204.655 229.33 199.723 227.599 196.436 222.407C193.148 217.214 178.024 204.233 171.119 198.464C164.215 192.695 141.857 178.848 141.857 174.521C141.857 171.513 152.378 156.925 164.215 141.348C179.339 129.521 183.919 108.736 191.504 113.944Z" fill="#FEF2F7"/>
</g>
</g>
<path d="M319.401 280.1C329.522 301.043 324.373 301.342 295.4 312.12C266.427 322.897 235.161 340.11 225.04 319.166C214.919 298.223 198.029 248.721 227.002 237.943C255.974 227.165 309.28 259.156 319.401 280.1Z" fill="url(#paint20_linear_213_532)"/>
<ellipse rx="58.276" ry="46.1165" transform="matrix(0.937251 -0.348656 0.435112 0.900376 273.423 299.536)" fill="url(#paint21_radial_213_532)" fill-opacity="0.5"/>
<ellipse rx="54.2559" ry="42.0078" transform="matrix(0.937251 -0.348656 0.435112 0.900376 273.127 300.204)" fill="#F0DCC5"/>
<ellipse rx="51.3516" ry="38.6404" transform="matrix(0.937251 -0.348656 0.435112 0.900376 272.885 299.044)" fill="url(#paint22_radial_213_532)"/>
<mask id="mask10_213_532" style="mask-type:alpha" maskUnits="userSpaceOnUse" x="221" y="259" width="103" height="80">
<ellipse rx="51.3516" ry="38.6404" transform="matrix(0.937251 -0.348656 0.435112 0.900376 272.885 299.045)" fill="#D16035"/>
</mask>
<g mask="url(#mask10_213_532)">
<path d="M292.118 236.341C296.619 245.656 295.501 256.088 289.932 265.46C284.362 274.831 274.361 283.093 261.226 287.98C248.091 292.866 234.37 293.429 222.82 290.425C211.27 287.422 201.946 280.874 197.445 271.559C192.943 262.244 194.061 251.812 199.631 242.44C205.2 233.069 215.201 224.807 228.336 219.921C241.471 215.035 255.193 214.472 266.743 217.475C278.292 220.478 287.616 227.026 292.118 236.341Z" stroke="url(#paint23_radial_213_532)" stroke-width="1.69158"/>
<path d="M345.764 341.919C354.809 360.636 344.547 382.519 322.571 390.694C300.596 398.869 275.534 390.127 266.489 371.41C257.443 352.692 267.706 330.81 289.682 322.635C311.657 314.46 336.719 323.202 345.764 341.919Z" stroke="url(#paint24_linear_213_532)" stroke-width="1.69158"/>
</g>
<defs>
<linearGradient id="paint0_linear_213_532" x1="313.39" y1="-554.76" x2="76.8653" y2="226.055" gradientUnits="userSpaceOnUse">
<stop stop-color="#EF8031" stop-opacity="0"/>
<stop offset="0.692955" stop-color="#EF8031" stop-opacity="0.15"/>
<stop offset="1" stop-color="#EF8031" stop-opacity="0"/>
</linearGradient>
<linearGradient id="paint1_linear_213_532" x1="309.538" y1="23.0772" x2="265.587" y2="125.982" gradientUnits="userSpaceOnUse">
<stop stop-color="#FFFF97" stop-opacity="0.945806"/>
<stop offset="0.456015" stop-color="white"/>
<stop offset="1" stop-color="white" stop-opacity="0.4"/>
</linearGradient>
<linearGradient id="paint2_linear_213_532" x1="304.989" y1="383.349" x2="284.769" y2="537.097" gradientUnits="userSpaceOnUse">
<stop stop-color="#FF78A3"/>
<stop offset="1" stop-color="#FF8EB2"/>
</linearGradient>
<linearGradient id="paint3_linear_213_532" x1="232.943" y1="314.715" x2="211.054" y2="403.614" gradientUnits="userSpaceOnUse">
<stop stop-color="#647B64"/>
<stop offset="1" stop-color="#647B64"/>
</linearGradient>
<linearGradient id="paint4_linear_213_532" x1="232.943" y1="314.715" x2="211.054" y2="403.614" gradientUnits="userSpaceOnUse">
<stop stop-color="#647B64"/>
<stop offset="1" stop-color="#647B64"/>
</linearGradient>
<linearGradient id="paint5_linear_213_532" x1="255.289" y1="357.119" x2="240.57" y2="354.883" gradientUnits="userSpaceOnUse">
<stop stop-color="#C1C5FF"/>
<stop offset="1" stop-color="#C1C5FF" stop-opacity="0"/>
</linearGradient>
<linearGradient id="paint6_linear_213_532" x1="240.821" y1="343.273" x2="236.396" y2="356.92" gradientUnits="userSpaceOnUse">
<stop stop-color="#C1C5FF"/>
<stop offset="1" stop-color="#C7CAFF" stop-opacity="0"/>
</linearGradient>
<linearGradient id="paint7_linear_213_532" x1="190.19" y1="336.927" x2="186.608" y2="318.555" gradientUnits="userSpaceOnUse">
<stop stop-color="#DBF3F8"/>
<stop offset="1" stop-color="#99B5F3"/>
</linearGradient>
<linearGradient id="paint8_linear_213_532" x1="223.489" y1="195.579" x2="226.78" y2="352.813" gradientUnits="userSpaceOnUse">
<stop stop-color="#647B64"/>
<stop offset="1" stop-color="#647B64"/>
</linearGradient>
<linearGradient id="paint9_linear_213_532" x1="223.491" y1="195.579" x2="226.781" y2="352.813" gradientUnits="userSpaceOnUse">
<stop stop-color="#647B64"/>
<stop offset="1" stop-color="#647B64"/>
</linearGradient>
<linearGradient id="paint10_linear_213_532" x1="182.295" y1="278.027" x2="193.959" y2="334.356" gradientUnits="userSpaceOnUse">
<stop stop-color="#99B5F3"/>
<stop offset="1" stop-color="#DBF3F8"/>
</linearGradient>
<linearGradient id="paint11_linear_213_532" x1="216.465" y1="336.927" x2="197.884" y2="306.094" gradientUnits="userSpaceOnUse">
<stop stop-color="#C1C5FF"/>
<stop offset="1" stop-color="#C1C5FF" stop-opacity="0"/>
</linearGradient>
<linearGradient id="paint12_linear_213_532" x1="217.807" y1="321.927" x2="205.783" y2="301.438" gradientUnits="userSpaceOnUse">
<stop stop-color="#C1C5FF"/>
<stop offset="1" stop-color="#C1C5FF" stop-opacity="0"/>
</linearGradient>
<linearGradient id="paint13_linear_213_532" x1="248.056" y1="208.561" x2="252.179" y2="234.363" gradientUnits="userSpaceOnUse">
<stop stop-color="#C1C5FF"/>
<stop offset="1" stop-color="#C1C5FF" stop-opacity="0"/>
</linearGradient>
<linearGradient id="paint14_linear_213_532" x1="192.82" y1="249.217" x2="186.697" y2="212.289" gradientUnits="userSpaceOnUse">
<stop stop-color="#647B64"/>
<stop offset="1" stop-color="#DBF3F8"/>
</linearGradient>
<linearGradient id="paint15_linear_213_532" x1="225.37" y1="158.855" x2="225.567" y2="206.163" gradientUnits="userSpaceOnUse">
<stop stop-color="#050753"/>
<stop offset="1" stop-color="#008294"/>
</linearGradient>
<linearGradient id="paint16_linear_213_532" x1="231.617" y1="181.067" x2="224.454" y2="184.971" gradientUnits="userSpaceOnUse">
<stop stop-color="#FC719A"/>
<stop offset="1" stop-color="#FC719A" stop-opacity="0"/>
</linearGradient>
<linearGradient id="paint17_linear_213_532" x1="161.915" y1="182.31" x2="252.809" y2="149.48" gradientUnits="userSpaceOnUse">
<stop stop-color="#647B64"/>
<stop offset="0.511301" stop-color="#647B64"/>
<stop offset="0.857583" stop-color="#5EC0DF"/>
<stop offset="1" stop-color="white"/>
</linearGradient>
<linearGradient id="paint18_linear_213_532" x1="210.575" y1="164.137" x2="261.004" y2="157.419" gradientUnits="userSpaceOnUse">
<stop stop-color="#02C3CD"/>
<stop offset="1" stop-color="white"/>
</linearGradient>
<linearGradient id="paint19_linear_213_532" x1="177.039" y1="182.31" x2="179.069" y2="160.619" gradientUnits="userSpaceOnUse">
<stop stop-color="white"/>
<stop offset="1" stop-color="#003BD5" stop-opacity="0"/>
<stop offset="1" stop-color="white"/>
</linearGradient>
<linearGradient id="paint20_linear_213_532" x1="226.684" y1="252.984" x2="271.692" y2="342.032" gradientUnits="userSpaceOnUse">
<stop stop-color="#F5FF7C" stop-opacity="0"/>
<stop offset="0.544444" stop-color="#F0DCC5"/>
<stop offset="1" stop-color="#AD8B64"/>
</linearGradient>
<radialGradient id="paint21_radial_213_532" cx="0" cy="0" r="1" gradientUnits="userSpaceOnUse" gradientTransform="translate(58.9748 102.628) rotate(-83.591) scale(68.1457 85.9756)">
<stop stop-color="#FFEC3E"/>
<stop offset="1" stop-color="#F0DCC5"/>
</radialGradient>
<radialGradient id="paint22_radial_213_532" cx="0" cy="0" r="1" gradientUnits="userSpaceOnUse" gradientTransform="translate(48.5978 5.64036) rotate(91.134) scale(89.9963 119.594)">
<stop stop-color="#F0DCC5"/>
<stop offset="0.546875" stop-color="#F0DCC5"/>
<stop offset="1" stop-color="#CF9B5E"/>
</radialGradient>
<radialGradient id="paint23_radial_213_532" cx="0" cy="0" r="1" gradientUnits="userSpaceOnUse" gradientTransform="translate(256.603 304.043) rotate(-101.883) scale(57.4825 78.7443)">
<stop stop-color="white"/>
<stop offset="1" stop-color="white" stop-opacity="0"/>
</radialGradient>
<linearGradient id="paint24_linear_213_532" x1="280.603" y1="306.928" x2="294.188" y2="336.377" gradientUnits="userSpaceOnUse">
<stop stop-color="white"/>
<stop offset="1" stop-color="white" stop-opacity="0"/>
</linearGradient>
<clipPath id="clip0_213_532">
<rect width="137.852" height="166.419" fill="white" transform="matrix(0.917881 0.396854 -0.48971 0.871885 220.395 0)"/>
</clipPath>
</defs>
</svg>
